<svg width="20" height="20" viewBox="0 0 20 20" fill="none" xmlns="http://www.w3.org/2000/svg">
<path d="M17.6478 5.84416C17.4222 5.62379 17.1163 5.5 16.7974 5.5C16.4784 5.5 16.1725 5.62379 15.947 5.84416L9.99274 11.6627L4.03852 5.84416C3.81166 5.63004 3.50781 5.51156 3.19242 5.51424C2.87703 5.51692 2.57533 5.64054 2.35231 5.85848C2.12929 6.07642 2.00279 6.37124 2.00005 6.67944C1.9973 6.98764 2.11855 7.28457 2.33766 7.50626L9.14231 14.1558C9.36788 14.3762 9.67378 14.5 9.99274 14.5C10.3117 14.5 10.6176 14.3762 10.8432 14.1558L17.6478 7.50626C17.8733 7.28583 18 6.9869 18 6.67521C18 6.36352 17.8733 6.06459 17.6478 5.84416Z" fill="#878787"/>
</svg>
