<svg width="58" height="58" viewBox="0 0 58 58" fill="none" xmlns="http://www.w3.org/2000/svg">
<circle cx="29" cy="29" r="29" fill="#F2F2F2"/>
<path d="M18.5186 18.5187C18.6638 18.3732 18.8362 18.2578 19.026 18.179C19.2158 18.1002 19.4193 18.0597 19.6249 18.0597C19.8304 18.0597 20.0339 18.1002 20.2237 18.179C20.4135 18.2578 20.586 18.3732 20.7311 18.5187L28.9999 26.7906L37.2686 18.5187C37.4139 18.3735 37.5864 18.2582 37.7762 18.1796C37.966 18.101 38.1694 18.0605 38.3749 18.0605C38.5803 18.0605 38.7838 18.101 38.9736 18.1796C39.1634 18.2582 39.3358 18.3735 39.4811 18.5187C39.6264 18.664 39.7416 18.8365 39.8202 19.0263C39.8989 19.2161 39.9393 19.4195 39.9393 19.625C39.9393 19.8304 39.8989 20.0339 39.8202 20.2237C39.7416 20.4135 39.6264 20.586 39.4811 20.7312L31.2092 29L39.4811 37.2687C39.6264 37.414 39.7416 37.5865 39.8202 37.7763C39.8989 37.9661 39.9393 38.1695 39.9393 38.375C39.9393 38.5804 39.8989 38.7839 39.8202 38.9737C39.7416 39.1635 39.6264 39.336 39.4811 39.4812C39.3358 39.6265 39.1634 39.7417 38.9736 39.8204C38.7838 39.899 38.5803 39.9395 38.3749 39.9395C38.1694 39.9395 37.966 39.899 37.7762 39.8204C37.5864 39.7417 37.4139 39.6265 37.2686 39.4812L28.9999 31.2094L20.7311 39.4812C20.5858 39.6265 20.4134 39.7417 20.2236 39.8204C20.0338 39.899 19.8303 39.9395 19.6249 39.9395C19.4194 39.9395 19.216 39.899 19.0262 39.8204C18.8364 39.7417 18.6639 39.6265 18.5186 39.4812C18.3733 39.336 18.2581 39.1635 18.1795 38.9737C18.1009 38.7839 18.0604 38.5804 18.0604 38.375C18.0604 38.1695 18.1009 37.9661 18.1795 37.7763C18.2581 37.5865 18.3733 37.414 18.5186 37.2687L26.7905 29L18.5186 20.7312C18.3731 20.5861 18.2577 20.4137 18.1789 20.2238C18.1001 20.034 18.0596 19.8305 18.0596 19.625C18.0596 19.4195 18.1001 19.216 18.1789 19.0261C18.2577 18.8363 18.3731 18.6639 18.5186 18.5187Z" fill="#B3B3B3"/>
</svg>
