<svg width="24" height="23" viewBox="0 0 24 23" fill="none" xmlns="http://www.w3.org/2000/svg">
<path d="M13.5909 11.5001L18.0441 15.7677C18.2554 15.9698 18.3743 16.2442 18.3745 16.5304C18.3748 16.8166 18.2564 17.0911 18.0455 17.2937C17.8345 17.4962 17.5482 17.6101 17.2496 17.6104C16.951 17.6106 16.6645 17.4972 16.4531 17.295L12 13.0274L7.54687 17.295C7.33553 17.4975 7.04888 17.6113 6.75 17.6113C6.45111 17.6113 6.16447 17.4975 5.95312 17.295C5.74178 17.0925 5.62305 16.8178 5.62305 16.5313C5.62305 16.2449 5.74178 15.9702 5.95312 15.7677L10.4062 11.5001L5.95312 7.2325C5.74178 7.02997 5.62305 6.75527 5.62305 6.46883C5.62305 6.1824 5.74178 5.9077 5.95312 5.70516C6.16447 5.50262 6.45111 5.38884 6.75 5.38884C7.04888 5.38884 7.33553 5.50262 7.54687 5.70516L12 9.97274L16.4531 5.70516C16.6645 5.50262 16.9511 5.38884 17.25 5.38884C17.5489 5.38884 17.8355 5.50262 18.0469 5.70516C18.2582 5.9077 18.3769 6.1824 18.3769 6.46883C18.3769 6.75527 18.2582 7.02997 18.0469 7.2325L13.5909 11.5001Z" fill="black"/>
</svg>
