<svg width="20" height="20" viewBox="0 0 20 20" fill="none" xmlns="http://www.w3.org/2000/svg">
<path d="M2.4165 5.95831C2.62484 5.74998 2.8715 5.64581 3.1565 5.64581C3.44095 5.64581 3.68734 5.74998 3.89567 5.95831L9.99984 12.0625L16.1248 5.93748C16.3193 5.74304 16.5623 5.64581 16.854 5.64581C17.1457 5.64581 17.3957 5.74998 17.604 5.95831C17.8123 6.16665 17.9165 6.41331 17.9165 6.69831C17.9165 6.98276 17.8123 7.22915 17.604 7.43748L10.5832 14.4375C10.4998 14.5208 10.4096 14.58 10.3123 14.615C10.2151 14.6494 10.1109 14.6666 9.99984 14.6666C9.88873 14.6666 9.78456 14.6494 9.68734 14.615C9.59011 14.58 9.49984 14.5208 9.4165 14.4375L2.39567 7.41665C2.20123 7.2222 2.104 6.98276 2.104 6.69831C2.104 6.41331 2.20817 6.16665 2.4165 5.95831Z" fill="black"/>
</svg>
