<svg width="22" height="22" viewBox="0 0 22 22" fill="none" xmlns="http://www.w3.org/2000/svg">
<path d="M9.16671 5.49998H12.8334C12.8334 5.01375 12.6402 4.54743 12.2964 4.20362C11.9526 3.8598 11.4863 3.66665 11 3.66665C10.5138 3.66665 10.0475 3.8598 9.70368 4.20362C9.35986 4.54743 9.16671 5.01375 9.16671 5.49998ZM7.33337 5.49998C7.33337 4.52752 7.71968 3.59489 8.40732 2.90725C9.09495 2.21962 10.0276 1.83331 11 1.83331C11.9725 1.83331 12.9051 2.21962 13.5928 2.90725C14.2804 3.59489 14.6667 4.52752 14.6667 5.49998H19.25C19.4932 5.49998 19.7263 5.59656 19.8982 5.76847C20.0701 5.94037 20.1667 6.17353 20.1667 6.41665C20.1667 6.65976 20.0701 6.89292 19.8982 7.06483C19.7263 7.23674 19.4932 7.33331 19.25 7.33331H18.4415L17.6294 16.8116C17.5513 17.7269 17.1325 18.5795 16.4559 19.2008C15.7793 19.8221 14.8941 20.1668 13.9755 20.1666H8.02454C7.10596 20.1668 6.22079 19.8221 5.54418 19.2008C4.86756 18.5795 4.44879 17.7269 4.37071 16.8116L3.55854 7.33331H2.75004C2.50693 7.33331 2.27377 7.23674 2.10186 7.06483C1.92995 6.89292 1.83337 6.65976 1.83337 6.41665C1.83337 6.17353 1.92995 5.94037 2.10186 5.76847C2.27377 5.59656 2.50693 5.49998 2.75004 5.49998H7.33337ZM13.75 11C13.75 10.7569 13.6535 10.5237 13.4816 10.3518C13.3096 10.1799 13.0765 10.0833 12.8334 10.0833C12.5903 10.0833 12.3571 10.1799 12.1852 10.3518C12.0133 10.5237 11.9167 10.7569 11.9167 11V14.6666C11.9167 14.9098 12.0133 15.1429 12.1852 15.3148C12.3571 15.4867 12.5903 15.5833 12.8334 15.5833C13.0765 15.5833 13.3096 15.4867 13.4816 15.3148C13.6535 15.1429 13.75 14.9098 13.75 14.6666V11ZM9.16671 10.0833C9.40982 10.0833 9.64298 10.1799 9.81489 10.3518C9.9868 10.5237 10.0834 10.7569 10.0834 11V14.6666C10.0834 14.9098 9.9868 15.1429 9.81489 15.3148C9.64298 15.4867 9.40982 15.5833 9.16671 15.5833C8.92359 15.5833 8.69043 15.4867 8.51853 15.3148C8.34662 15.1429 8.25004 14.9098 8.25004 14.6666V11C8.25004 10.7569 8.34662 10.5237 8.51853 10.3518C8.69043 10.1799 8.92359 10.0833 9.16671 10.0833ZM6.19671 16.6558C6.23576 17.1136 6.44528 17.54 6.78378 17.8507C7.12228 18.1614 7.56509 18.3336 8.02454 18.3333H13.9755C14.4347 18.3331 14.877 18.1607 15.2151 17.8501C15.5533 17.5395 15.7625 17.1133 15.8015 16.6558L16.6009 7.33331H5.39921L6.19854 16.6558H6.19671Z" fill="black"/>
</svg>
