<svg width="24" height="24" viewBox="0 0 24 24" fill="none" xmlns="http://www.w3.org/2000/svg">
<path d="M12.4082 14.975C12.2794 14.975 12.1548 14.95 12.0343 14.9C11.9133 14.85 11.8125 14.7834 11.732 14.7L7.28859 10.1C7.11149 9.91672 7.02295 9.68338 7.02295 9.40005C7.02295 9.11671 7.11149 8.88338 7.28859 8.70005C7.46568 8.51672 7.69107 8.42505 7.96476 8.42505C8.23845 8.42505 8.46384 8.51672 8.64093 8.70005L12.4082 12.6L16.1754 8.70005C16.3525 8.51672 16.5779 8.42505 16.8516 8.42505C17.1253 8.42505 17.3506 8.51672 17.5277 8.70005C17.7048 8.88338 17.7934 9.11671 17.7934 9.40005C17.7934 9.68338 17.7048 9.91672 17.5277 10.1L13.0843 14.7C12.9877 14.8 12.8831 14.8707 12.7704 14.912C12.6577 14.954 12.537 14.975 12.4082 14.975V14.975Z" fill="#C8C8C8"/>
</svg>
