<svg width="22" height="22" viewBox="0 0 22 22" fill="none" xmlns="http://www.w3.org/2000/svg">
<circle cx="11" cy="11" r="10.5" stroke="white"/>
<g clip-path="url(#clip0_103_963)">
<path fill-rule="evenodd" clip-rule="evenodd" d="M8.7325 5.533C9.319 5.506 9.506 5.5 11 5.5C12.494 5.5 12.681 5.5065 13.267 5.533C13.853 5.5595 14.253 5.653 14.603 5.7885C14.9695 5.927 15.302 6.1435 15.577 6.4235C15.857 6.698 16.073 7.03 16.211 7.397C16.347 7.747 16.44 8.147 16.467 8.732C16.494 9.3195 16.5 9.5065 16.5 11C16.5 12.494 16.4935 12.681 16.467 13.2675C16.4405 13.8525 16.347 14.2525 16.211 14.6025C16.073 14.9695 15.8566 15.3021 15.577 15.577C15.302 15.857 14.9695 16.073 14.603 16.211C14.253 16.347 13.853 16.44 13.268 16.467C12.681 16.494 12.494 16.5 11 16.5C9.506 16.5 9.319 16.4935 8.7325 16.467C8.1475 16.4405 7.7475 16.347 7.3975 16.211C7.03046 16.073 6.69791 15.8566 6.423 15.577C6.14319 15.3023 5.92666 14.9699 5.7885 14.603C5.653 14.253 5.56 13.853 5.533 13.268C5.506 12.6805 5.5 12.4935 5.5 11C5.5 9.506 5.5065 9.319 5.533 8.733C5.5595 8.147 5.653 7.747 5.7885 7.397C5.92686 7.03004 6.14356 6.69766 6.4235 6.423C6.69802 6.14325 7.03024 5.92672 7.397 5.7885C7.747 5.653 8.147 5.56 8.732 5.533H8.7325ZM13.2225 6.523C12.6425 6.4965 12.4685 6.491 11 6.491C9.5315 6.491 9.3575 6.4965 8.7775 6.523C8.241 6.5475 7.95 6.637 7.756 6.7125C7.4995 6.8125 7.316 6.931 7.1235 7.1235C6.94102 7.30103 6.80059 7.51714 6.7125 7.756C6.637 7.95 6.5475 8.241 6.523 8.7775C6.4965 9.3575 6.491 9.5315 6.491 11C6.491 12.4685 6.4965 12.6425 6.523 13.2225C6.5475 13.759 6.637 14.05 6.7125 14.244C6.8005 14.4825 6.941 14.699 7.1235 14.8765C7.301 15.059 7.5175 15.1995 7.756 15.2875C7.95 15.363 8.241 15.4525 8.7775 15.477C9.3575 15.5035 9.531 15.509 11 15.509C12.469 15.509 12.6425 15.5035 13.2225 15.477C13.759 15.4525 14.05 15.363 14.244 15.2875C14.5005 15.1875 14.684 15.069 14.8765 14.8765C15.059 14.699 15.1995 14.4825 15.2875 14.244C15.363 14.05 15.4525 13.759 15.477 13.2225C15.5035 12.6425 15.509 12.4685 15.509 11C15.509 9.5315 15.5035 9.3575 15.477 8.7775C15.4525 8.241 15.363 7.95 15.2875 7.756C15.1875 7.4995 15.069 7.316 14.8765 7.1235C14.699 6.94104 14.4829 6.80061 14.244 6.7125C14.05 6.637 13.759 6.5475 13.2225 6.523V6.523ZM10.2975 12.6955C10.6898 12.8588 11.1267 12.8809 11.5335 12.7579C11.9402 12.6349 12.2917 12.3745 12.5278 12.0211C12.7639 11.6678 12.87 11.2434 12.828 10.8206C12.786 10.3977 12.5985 10.0025 12.2975 9.7025C12.1056 9.51074 11.8736 9.36391 11.6182 9.27257C11.3627 9.18124 11.0902 9.14768 10.8202 9.17431C10.5503 9.20094 10.2896 9.28709 10.0569 9.42657C9.82423 9.56604 9.62537 9.75537 9.47465 9.98093C9.32393 10.2065 9.22509 10.4626 9.18526 10.731C9.14542 10.9993 9.16558 11.2731 9.24427 11.5328C9.32296 11.7924 9.45824 12.0313 9.64036 12.2324C9.82248 12.4334 10.0469 12.5916 10.2975 12.6955ZM9.001 9.001C9.26351 8.73849 9.57516 8.53025 9.91815 8.38818C10.2611 8.24611 10.6288 8.17299 11 8.17299C11.3712 8.17299 11.7389 8.24611 12.0819 8.38818C12.4248 8.53025 12.7365 8.73849 12.999 9.001C13.2615 9.26351 13.4697 9.57516 13.6118 9.91815C13.7539 10.2611 13.827 10.6288 13.827 11C13.827 11.3712 13.7539 11.7389 13.6118 12.0819C13.4697 12.4248 13.2615 12.7365 12.999 12.999C12.4688 13.5292 11.7498 13.827 11 13.827C10.2502 13.827 9.53117 13.5292 9.001 12.999C8.47083 12.4688 8.17299 11.7498 8.17299 11C8.17299 10.2502 8.47083 9.53117 9.001 9.001V9.001ZM14.454 8.594C14.5191 8.53263 14.5711 8.45884 14.6072 8.37699C14.6432 8.29513 14.6624 8.20688 14.6637 8.11747C14.665 8.02805 14.6484 7.93927 14.6147 7.85641C14.5811 7.77354 14.5312 7.69826 14.468 7.63502C14.4047 7.57178 14.3295 7.52188 14.2466 7.48826C14.1637 7.45464 14.075 7.43799 13.9855 7.43929C13.8961 7.4406 13.8079 7.45983 13.726 7.49585C13.6442 7.53187 13.5704 7.58395 13.509 7.649C13.3897 7.77551 13.3243 7.94356 13.3269 8.11747C13.3294 8.29137 13.3996 8.45744 13.5226 8.58042C13.6456 8.7034 13.8116 8.77361 13.9855 8.77615C14.1594 8.77868 14.3275 8.71334 14.454 8.594V8.594Z" fill="white"/>
</g>
<defs>
<clipPath id="clip0_103_963">
<rect width="12" height="12" fill="white" transform="translate(5 5)"/>
</clipPath>
</defs>
</svg>
