<svg width="19" height="18" viewBox="0 0 19 18" fill="none" xmlns="http://www.w3.org/2000/svg">
<path d="M11.9167 2.50004C11.805 3.04998 11.805 3.61677 11.9167 4.16671H2.25925L8.55092 9.71837L12.7584 5.95171C13.1134 6.39087 13.5567 6.75671 14.0609 7.02254L8.56008 11.9484L1.83341 6.01337V15.8334H15.1667V7.41671C15.7167 7.52843 16.2835 7.52843 16.8334 7.41671V16.6667C16.8334 16.8877 16.7456 17.0997 16.5893 17.256C16.4331 17.4122 16.2211 17.5 16.0001 17.5H1.00008C0.779068 17.5 0.567106 17.4122 0.410826 17.256C0.254545 17.0997 0.166748 16.8877 0.166748 16.6667V3.33337C0.166748 3.11236 0.254545 2.9004 0.410826 2.74412C0.567106 2.58784 0.779068 2.50004 1.00008 2.50004H11.9167ZM16.0001 5.83337C15.6718 5.83337 15.3467 5.76871 15.0434 5.64307C14.7401 5.51744 14.4645 5.33329 14.2323 5.10114C14.0002 4.86899 13.816 4.5934 13.6904 4.29008C13.5647 3.98677 13.5001 3.66168 13.5001 3.33337C13.5001 3.00507 13.5647 2.67998 13.6904 2.37667C13.816 2.07335 14.0002 1.79775 14.2323 1.56561C14.4645 1.33346 14.7401 1.14931 15.0434 1.02368C15.3467 0.898038 15.6718 0.833374 16.0001 0.833374C16.6631 0.833374 17.299 1.09677 17.7678 1.56561C18.2367 2.03445 18.5001 2.67033 18.5001 3.33337C18.5001 3.99642 18.2367 4.6323 17.7678 5.10114C17.299 5.56998 16.6631 5.83337 16.0001 5.83337Z" fill="black"/>
</svg>
