<svg width="19" height="20" viewBox="0 0 19 20" fill="none" xmlns="http://www.w3.org/2000/svg">
<g clip-path="url(#clip0_5_5)">
<path fill-rule="evenodd" clip-rule="evenodd" d="M8.86667 6.2C8.86667 4.68827 9.4672 3.23845 10.5362 2.16949C11.6051 1.10053 13.0549 0.5 14.5667 0.5L19 0.5V4.93333C19 6.44507 18.3995 7.89488 17.3305 8.96384C16.2616 10.0328 14.8117 10.6333 13.3 10.6333H10.1333V19.5H8.86667V14.4333H5.7C4.18827 14.4333 2.73845 13.8328 1.66949 12.7638C0.600534 11.6949 0 10.2451 0 8.73333L0 4.3H4.43333C6.2244 4.3 7.82167 5.12587 8.86667 6.4166V6.2ZM10.3183 8.28493L14.1183 4.48493L15.0151 5.38173L11.2151 9.18173L10.3183 8.28493ZM7.78493 12.9817L3.98493 9.18173L4.88173 8.28493L8.68173 12.0849L7.78493 12.9817Z" fill="#111111"/>
</g>
<defs>
<clipPath id="clip0_5_5">
<rect width="19" height="19" fill="white" transform="translate(0 0.5)"/>
</clipPath>
</defs>
</svg>
