<svg width="19" height="17" viewBox="0 0 19 17" fill="none" xmlns="http://www.w3.org/2000/svg">
<path d="M17.9267 11.8944H5.71426L6.32744 10.6455L16.5157 10.6271C16.8603 10.6271 17.1556 10.381 17.2171 10.0405L18.628 2.14297C18.6649 1.93584 18.6096 1.72256 18.4742 1.56055C18.4073 1.48081 18.3239 1.41659 18.2297 1.37232C18.1355 1.32805 18.0328 1.30481 17.9287 1.3042L4.96778 1.26113L4.85703 0.740234C4.78731 0.408008 4.48789 0.166016 4.14746 0.166016H0.979007C0.78701 0.166016 0.602877 0.242286 0.467114 0.378049C0.331352 0.513811 0.255081 0.697944 0.255081 0.889942C0.255081 1.08194 0.331352 1.26607 0.467114 1.40183C0.602877 1.5376 0.78701 1.61387 0.979007 1.61387H3.56094L4.04492 3.91484L5.23643 9.68369L3.70244 12.1877C3.62278 12.2952 3.5748 12.4229 3.56393 12.5563C3.55306 12.6896 3.57973 12.8234 3.64092 12.9424C3.76397 13.1864 4.01211 13.3402 4.28692 13.3402H5.57481C5.30025 13.7049 5.15194 14.1491 5.15235 14.6056C5.15235 15.7663 6.09571 16.7097 7.25645 16.7097C8.41719 16.7097 9.36055 15.7663 9.36055 14.6056C9.36055 14.1482 9.20879 13.7032 8.93809 13.3402H12.2419C11.9673 13.7049 11.819 14.1491 11.8194 14.6056C11.8194 15.7663 12.7628 16.7097 13.9235 16.7097C15.0843 16.7097 16.0276 15.7663 16.0276 14.6056C16.0276 14.1482 15.8759 13.7032 15.6052 13.3402H17.9287C18.3266 13.3402 18.6526 13.0162 18.6526 12.6163C18.6514 12.4245 18.5744 12.241 18.4384 12.1057C18.3024 11.9705 18.1185 11.8945 17.9267 11.8944ZM5.26924 2.68848L17.0776 2.72744L15.921 9.20381L6.64532 9.22022L5.26924 2.68848ZM7.25645 15.2536C6.89961 15.2536 6.6084 14.9624 6.6084 14.6056C6.6084 14.2487 6.89961 13.9575 7.25645 13.9575C7.61328 13.9575 7.9045 14.2487 7.9045 14.6056C7.9045 14.7774 7.83622 14.9423 7.71469 15.0638C7.59315 15.1853 7.42832 15.2536 7.25645 15.2536ZM13.9235 15.2536C13.5667 15.2536 13.2755 14.9624 13.2755 14.6056C13.2755 14.2487 13.5667 13.9575 13.9235 13.9575C14.2804 13.9575 14.5716 14.2487 14.5716 14.6056C14.5716 14.7774 14.5033 14.9423 14.3818 15.0638C14.2602 15.1853 14.0954 15.2536 13.9235 15.2536Z" fill="#111111"/>
</svg>
