<svg width="22" height="22" viewBox="0 0 22 22" fill="none" xmlns="http://www.w3.org/2000/svg">
<circle cx="11" cy="11" r="10.5" fill="black" stroke="white"/>
<path d="M16.8215 7.46849C16.404 7.65349 15.9555 7.77849 15.484 7.83499C15.9705 7.54389 16.3345 7.08573 16.508 6.54599C16.0509 6.81749 15.5507 7.00859 15.029 7.11099C14.6782 6.73643 14.2135 6.48816 13.7072 6.40473C13.2008 6.3213 12.6811 6.40739 12.2286 6.64962C11.7762 6.89185 11.4164 7.27667 11.2051 7.74434C10.9938 8.21202 10.9428 8.73637 11.06 9.23599C10.1338 9.18949 9.22782 8.94877 8.40072 8.52945C7.57362 8.11012 6.84393 7.52157 6.25901 6.80199C6.05901 7.14699 5.94401 7.54699 5.94401 7.97299C5.94378 8.35649 6.03822 8.73411 6.21895 9.07236C6.39967 9.4106 6.66109 9.69901 6.98001 9.91199C6.61014 9.90022 6.24844 9.80028 5.92501 9.62049V9.65049C5.92497 10.1884 6.11102 10.7097 6.4516 11.126C6.79217 11.5423 7.26629 11.828 7.79351 11.9345C7.4504 12.0274 7.09067 12.041 6.74151 11.9745C6.89025 12.4373 7.18 12.842 7.57019 13.132C7.96038 13.4219 8.43146 13.5826 8.91751 13.5915C8.09242 14.2392 7.07345 14.5905 6.02451 14.589C5.8387 14.589 5.65304 14.5782 5.46851 14.5565C6.53324 15.2411 7.77268 15.6044 9.03851 15.603C13.3235 15.603 15.666 12.054 15.666 8.97599C15.666 8.87599 15.6635 8.77499 15.659 8.67499C16.1147 8.34548 16.508 7.93744 16.8205 7.46999L16.8215 7.46849V7.46849Z" fill="white"/>
</svg>
