<svg width="17" height="18" viewBox="0 0 17 18" fill="none" xmlns="http://www.w3.org/2000/svg">
<path fill-rule="evenodd" clip-rule="evenodd" d="M11.5909 6.68173C11.5909 7.50149 11.2653 8.28767 10.6856 8.86733C10.1059 9.44699 9.31976 9.77264 8.5 9.77264C7.68024 9.77264 6.89405 9.44699 6.31439 8.86733C5.73474 8.28767 5.40909 7.50149 5.40909 6.68173C5.40909 5.86197 5.73474 5.07578 6.31439 4.49613C6.89405 3.91647 7.68024 3.59082 8.5 3.59082C9.31976 3.59082 10.1059 3.91647 10.6856 4.49613C11.2653 5.07578 11.5909 5.86197 11.5909 6.68173ZM10.0455 6.68173C10.0455 7.09161 9.88263 7.4847 9.5928 7.77453C9.30297 8.06436 8.90988 8.22718 8.5 8.22718C8.09012 8.22718 7.69703 8.06436 7.4072 7.77453C7.11737 7.4847 6.95454 7.09161 6.95454 6.68173C6.95454 6.27185 7.11737 5.87876 7.4072 5.58893C7.69703 5.2991 8.09012 5.13627 8.5 5.13627C8.90988 5.13627 9.30297 5.2991 9.5928 5.58893C9.88263 5.87876 10.0455 6.27185 10.0455 6.68173Z" fill="black"/>
<path fill-rule="evenodd" clip-rule="evenodd" d="M8.5 0.5C3.80568 0.5 0 4.30568 0 9C0 13.6943 3.80568 17.5 8.5 17.5C13.1943 17.5 17 13.6943 17 9C17 4.30568 13.1943 0.5 8.5 0.5ZM1.54545 9C1.54545 10.615 2.09641 12.1017 3.01982 13.2825C3.66831 12.4308 4.50492 11.7407 5.46429 11.2659C6.42366 10.7911 7.4798 10.5445 8.55023 10.5455C9.6068 10.5445 10.6497 10.7846 11.5994 11.2477C12.549 11.7108 13.3805 12.3845 14.0304 13.2175C14.6999 12.3394 15.1507 11.3145 15.3455 10.2275C15.5403 9.14061 15.4734 8.02291 15.1505 6.96694C14.8275 5.91097 14.2578 4.94708 13.4883 4.15503C12.7189 3.36298 11.7719 2.76553 10.7257 2.41212C9.67958 2.05871 8.56429 1.95951 7.47216 2.12271C6.38004 2.28591 5.34247 2.70683 4.44532 3.35063C3.54817 3.99444 2.81722 4.84263 2.31295 5.82501C1.80868 6.8074 1.54559 7.89575 1.54545 9ZM8.5 15.9545C6.90351 15.9569 5.35521 15.4077 4.11709 14.3998C4.61545 13.6864 5.27876 13.1039 6.0506 12.7019C6.82245 12.2999 7.67997 12.0903 8.55023 12.0909C9.40962 12.0902 10.2568 12.2946 11.0214 12.687C11.7859 13.0794 12.4458 13.6486 12.9463 14.3473C11.6985 15.3879 10.1247 15.9568 8.5 15.9545Z" fill="black"/>
</svg>
