<svg width="19" height="19" viewBox="0 0 19 19" fill="none" xmlns="http://www.w3.org/2000/svg">
<g clip-path="url(#clip0_103_985)">
<path fill-rule="evenodd" clip-rule="evenodd" d="M8.86667 5.7C8.86667 4.18827 9.4672 2.73845 10.5362 1.66949C11.6051 0.600534 13.0549 0 14.5667 0L19 0V4.43333C19 5.94507 18.3995 7.39488 17.3305 8.46384C16.2616 9.5328 14.8117 10.1333 13.3 10.1333H10.1333V19H8.86667V13.9333H5.7C4.18827 13.9333 2.73845 13.3328 1.66949 12.2638C0.600534 11.1949 0 9.74507 0 8.23333L0 3.8H4.43333C6.2244 3.8 7.82167 4.62587 8.86667 5.9166V5.7ZM10.3183 7.78493L14.1183 3.98493L15.0151 4.88173L11.2151 8.68173L10.3183 7.78493ZM7.78493 12.4817L3.98493 8.68173L4.88173 7.78493L8.68173 11.5849L7.78493 12.4817Z" fill="white"/>
</g>
<defs>
<clipPath id="clip0_103_985">
<rect width="19" height="19" fill="white"/>
</clipPath>
</defs>
</svg>
